<?xml version="1.0" encoding="UTF-8"?><svg id="icons" xmlns="http://www.w3.org/2000/svg" width="128" height="128" viewBox="0 0 128 128"><g id="row1"><path id="tee" d="m128,32.8l-4.1,3.3-25.2-25.2,4-3.9,25.3,25.8Zm-7.9,7.3l-25.2-25.2s.1,17.3-9.6,27h0c-43.3,43.3-63.3,63.2-63.3,63.2l.1.1s-8.9,14.7-8,15.7c1.1,1.1,15.7-8,15.7-8l.1.1s15.9-15.9,63.2-63.2h0c10-10,27-9.7,27-9.7ZM25.3,7L0,32.8l4.1,3.3L29.2,10.9l-3.9-3.9Zm80,97.6l.1-.1-30.5-30.5-7.8,7.8c22.2,22.2,30.5,30.5,30.5,30.5l.1-.1s14.6,9.1,15.7,8c.9-.8-8.1-15.6-8.1-15.6Zm-62.6-62.7c-9.5-9.5-9.6-26.1-9.6-27h0L7.9,40.1s17-.3,27,9.6l18.9,18.9,7.8-7.8c-5.7-5.7-12-12-18.9-18.9Z" fill="#e8a41c" stroke-width="0"/></g></svg>