<?xml version="1.0" encoding="utf-8"?>
<!-- Generator: Adobe Illustrator 28.2.0, SVG Export Plug-In . SVG Version: 6.00 Build 0)  -->
<svg version="1.1" id="icons" xmlns="http://www.w3.org/2000/svg" xmlns:xlink="http://www.w3.org/1999/xlink" x="0px" y="0px"
	 viewBox="0 0 128 128" style="enable-background:new 0 0 128 128;" xml:space="preserve">
<style type="text/css">
	.st0{fill:#371FE5;}
	.st1{fill:#FFFFFF;}
</style>
<path class="st0" d="M25.3,7L0,32.8l4.1,3.3l25.1-25.2L25.3,7z M105.3,104.6L105.3,104.6L74.9,74l-7.8,7.8
	c22.2,22.2,30.5,30.5,30.5,30.5l0.1-0.1c0,0,14.6,9.1,15.7,8C114.3,119.4,105.3,104.6,105.3,104.6z M42.7,41.9
	c-9.5-9.5-9.6-26.1-9.6-27l0,0L7.9,40.1c0,0,17-0.3,27,9.6l18.9,18.9l7.8-7.8C55.9,55.1,49.6,48.8,42.7,41.9z"/>
<path class="st1" d="M128,32.8l-4.1,3.3L98.7,10.9l4-3.9L128,32.8z M120.1,40.1L94.9,14.9c0,0,0.1,17.3-9.6,27l0,0
	C42,85.2,22,105.1,22,105.1l0.1,0.1c0,0-8.9,14.7-8,15.7c1.1,1.1,15.7-8,15.7-8l0.1,0.1c0,0,15.9-15.9,63.2-63.2l0,0
	C103.1,39.8,120.1,40.1,120.1,40.1z"/>
</svg>
